<svg viewBox="0 0 20 20" xmlns="http://www.w3.org/2000/svg" class="e-social-share__icon" height="20px" width="20px">
  <title>Email Icon</title>
  <path d="M1 4C1 3.44772 1.44772 3 2 3H18C18.5523 3 19 3.44772 19 4V16C19 16.5523 18.5523 17 18 17H2C1.44772 17 1 16.5523 1 16V4ZM2.5 5.56065V14.248L6.48171 9.54236L2.5 5.56065ZM3.40554 15.5H16.5944L12.454 10.6067L11.3107 11.75L8.68934 11.75L7.54604 10.6067L3.40554 15.5ZM17.5 14.248V5.56068L13.5183 9.54236L17.5 14.248ZM16.4394 4.5H3.56067L9.31066 10.25L10.6894 10.25L16.4394 4.5Z" class="e-social-share__icon-foreground"></path>
</svg>