<svg xmlns="http://www.w3.org/2000/svg" viewBox="0 0 20 20">
  <path d="M9.375 15V8.75H10.625V15H9.375ZM8.75 6.25L10 5L11.25 6.25L10 7.5L8.75 6.25Z"></path>
  <path d="M10 1.25C12.3125 1.25 14.5625 2.1875 16.1875 3.8125C17.8125 5.4375 18.75 7.6875 18.75 10C18.75 12.3125 17.8125 14.5625 16.1875 16.1875C14.5625 17.8125 12.3125 18.75 10 18.75C7.6875 18.75 5.4375 17.8125 3.8125 16.1875C2.1875 14.5625 1.25 12.3125 1.25 10C1.25 7.6875 2.1875 5.4375 3.8125 3.8125C5.4375 2.1875 7.6875 1.25 10 1.25ZM10 0C4.5 0 0 4.5 0 10C0 15.5 4.5 20 10 20C15.5 20 20 15.5 20 10C20 4.5 15.5 0 10 0Z"></path>
</svg>