<svg xmlns="http://www.w3.org/2000/svg" viewBox="0 0 20 20">
  <title>Instagram icon</title>
  <path fill-rule="evenodd" clip-rule="evenodd" d="M9.99683 3.44156C12.1333 3.44156 12.3841 3.45108 13.2286 3.48918C14.0095 3.52411 14.4317 3.6543 14.7143 3.76543C15.0889 3.91149 15.3556 4.08295 15.6349 4.36237C15.9143 4.64179 16.0889 4.90851 16.2317 5.28319C16.3397 5.56579 16.473 5.98809 16.5079 6.7692C16.546 7.61381 16.5556 7.86466 16.5556 10.0016C16.5556 12.1385 16.546 12.3894 16.5079 13.234C16.473 14.0151 16.3429 14.4374 16.2317 14.72C16.0857 15.0947 15.9143 15.3614 15.6349 15.6408C15.3556 15.9202 15.0889 16.0949 14.7143 16.2377C14.4317 16.3457 14.0095 16.4791 13.2286 16.514C12.3841 16.5521 12.1333 16.5616 9.99683 16.5616C7.86032 16.5616 7.60952 16.5521 6.76508 16.514C5.98413 16.4791 5.56191 16.3489 5.27937 16.2377C4.90476 16.0917 4.6381 15.9202 4.35873 15.6408C4.07937 15.3614 3.90476 15.0947 3.7619 14.72C3.65397 14.4374 3.52064 14.0151 3.48571 13.234C3.44762 12.3894 3.4381 12.1385 3.4381 10.0016C3.4381 7.86466 3.44762 7.61381 3.48571 6.7692C3.52064 5.98809 3.65079 5.56579 3.7619 5.28319C3.90794 4.90851 4.07937 4.64179 4.35873 4.36237C4.6381 4.08295 4.90476 3.90832 5.27937 3.76543C5.56191 3.65747 5.98413 3.52411 6.76508 3.48918C7.60952 3.44791 7.86349 3.44156 9.99683 3.44156ZM9.99683 2C7.8254 2 7.55238 2.00953 6.69841 2.04763C5.84762 2.08573 5.26667 2.22227 4.75873 2.41913C4.23175 2.62235 3.7873 2.89859 3.34286 3.34312C2.89841 3.78766 2.6254 4.23536 2.41905 4.75928C2.22222 5.26732 2.08571 5.84838 2.04762 6.70252C2.00952 7.55348 2 7.82655 2 9.99841C2 12.1703 2.00952 12.4433 2.04762 13.2975C2.08571 14.1484 2.22222 14.7295 2.41905 15.2407C2.62222 15.7678 2.89841 16.2123 3.34286 16.6569C3.7873 17.1014 4.23492 17.3745 4.75873 17.5809C5.26667 17.7777 5.84762 17.9143 6.70159 17.9524C7.55556 17.9905 7.8254 18 10 18C12.1746 18 12.4444 17.9905 13.2984 17.9524C14.1492 17.9143 14.7302 17.7777 15.2413 17.5809C15.7683 17.3777 16.2127 17.1014 16.6571 16.6569C17.1016 16.2123 17.3746 15.7646 17.581 15.2407C17.7778 14.7327 17.9143 14.1516 17.9524 13.2975C17.9905 12.4433 18 12.1734 18 9.99841C18 7.82338 17.9905 7.55348 17.9524 6.69935C17.9143 5.84838 17.7778 5.26732 17.581 4.7561C17.3778 4.22901 17.1016 3.78448 16.6571 3.33995C16.2127 2.89542 15.7651 2.62235 15.2413 2.41596C14.7333 2.21909 14.1524 2.08256 13.2984 2.04445C12.4413 2.00953 12.1683 2 9.99683 2ZM9.99661 5.89313C7.72994 5.89313 5.88867 7.73159 5.88867 10.0019C5.88867 12.2722 7.72677 14.1106 9.99661 14.1106C12.2665 14.1106 14.1045 12.2722 14.1045 10.0019C14.1045 7.73159 12.2665 5.89313 9.99661 5.89313ZM9.99661 12.6659C8.52359 12.6659 7.32994 11.472 7.32994 9.9987C7.32994 8.5254 8.52359 7.33151 9.99661 7.33151C11.4696 7.33151 12.6633 8.5254 12.6633 9.9987C12.6633 11.472 11.4696 12.6659 9.99661 12.6659ZM15.2258 5.72778C15.2258 6.25738 14.7966 6.6867 14.2671 6.6867C13.7376 6.6867 13.3083 6.25738 13.3083 5.72778C13.3083 5.19818 13.7376 4.76886 14.2671 4.76886C14.7966 4.76886 15.2258 5.19818 15.2258 5.72778Z"></path>
</svg>