<svg xmlns="http://www.w3.org/2000/svg" viewBox="0 0 20 20">
  <title>LinkedIn icon</title>
  <path d="M5.51774 18H2.22695V7.33333H5.51774V18ZM3.92907 5.85816C2.9078 5.85816 2 4.95035 2 3.92908C2 2.9078 2.9078 2 3.92907 2C4.95035 2 5.85815 2.9078 5.85815 3.92908C5.85815 4.95035 4.95035 5.85816 3.92907 5.85816ZM18 18H14.7092V12.7801C14.7092 11.5319 14.7092 9.94326 13.0071 9.94326C11.305 9.94326 10.9645 11.305 10.9645 12.6667V17.8865H7.67376V7.21986H10.8511V8.69504C11.5319 7.56028 12.6667 6.87943 14.0284 6.99291C17.4326 6.99291 18 9.14894 18 12.0993V18Z"></path>
</svg>