<svg class="e-save-article__icon" xmlns="http://www.w3.org/2000/svg" viewBox="0 0 20 20">
  <title>Save</title>
  <path class="ribbon--outline" d="M10 13.1453L15.5 17.1453V3C15.5 2.72386 15.2761 2.5 15 2.5H5C4.72386 2.5 4.5 2.72386 4.5 3V17.1453L10 13.1453ZM3 18V3C3 1.89543 3.89543 1 5 1H15C16.1046 1 17 1.89543 17 3V18L15.5 19L10 15L4.5 19L3 18Z"></path>
  <path class="ribbon--inside" d="M10.4411 14.3934L10 14.0726L9.55887 14.3934L4.48136 18.0862L3.75 17.5986V3C3.75 2.30964 4.30964 1.75 5 1.75H15C15.6904 1.75 16.25 2.30964 16.25 3V17.5986L15.5186 18.0862L10.4411 14.3934Z"></path>
</svg>