<svg xmlns="http://www.w3.org/2000/svg" viewBox="0 0 20 20">
  <title>Snapchat icon</title>
  <path d="M17.9422 13.7043C17.8318 13.3971 17.6194 13.2311 17.3783 13.0983C17.3334 13.0734 17.2925 13.0485 17.2558 13.0319C17.1822 12.9946 17.1087 12.9572 17.0351 12.9198C16.2834 12.5131 15.695 12.0067 15.2905 11.4008C15.1761 11.2306 15.074 11.048 14.9923 10.8612C14.9555 10.7616 14.9596 10.7035 14.9841 10.6495C15.0086 10.608 15.0413 10.5748 15.0821 10.5458C15.2129 10.4586 15.3436 10.3715 15.4335 10.3134C15.5929 10.2054 15.7236 10.1224 15.8053 10.0643C16.1118 9.84436 16.3283 9.61193 16.4631 9.35045C16.6552 8.98521 16.6797 8.55772 16.5326 8.17172C16.3283 7.62386 15.8217 7.28768 15.2047 7.28768C15.074 7.28768 14.9473 7.30013 14.8166 7.32918C14.7839 7.33748 14.7471 7.34578 14.7144 7.35409C14.7185 6.98054 14.7103 6.58625 14.6777 6.19611C14.5633 4.83061 14.0893 4.11673 13.599 3.54812C13.2844 3.19118 12.9167 2.8882 12.5041 2.65162C11.7605 2.21997 10.9147 2 9.99542 2C9.07613 2 8.23447 2.21997 7.49087 2.65162C7.07821 2.8882 6.7105 3.19118 6.39589 3.54812C5.90561 4.11673 5.43575 4.83476 5.31726 6.19611C5.28458 6.58625 5.27641 6.98054 5.28049 7.35409C5.24781 7.34578 5.21512 7.33748 5.17835 7.32918C5.05169 7.30013 4.92095 7.28768 4.79429 7.28768C4.17735 7.28768 3.67072 7.62802 3.46643 8.17172C3.31934 8.55772 3.34386 8.98521 3.53589 9.35045C3.67072 9.61193 3.88726 9.84436 4.19369 10.0643C4.2754 10.1224 4.40206 10.2054 4.56549 10.3134C4.65129 10.3715 4.77795 10.4545 4.90461 10.5375C4.94955 10.5665 4.98632 10.6039 5.01492 10.6495C5.03943 10.7035 5.04352 10.7616 5.00266 10.8695C4.92095 11.0521 4.82289 11.2306 4.70849 11.3966C4.31218 11.986 3.74017 12.4882 3.01291 12.8908C2.62886 13.0983 2.22846 13.2353 2.05685 13.7043C1.9302 14.0571 2.01191 14.4555 2.33468 14.7959C2.45317 14.9204 2.59208 15.0283 2.74326 15.1113C3.05786 15.2856 3.39289 15.4226 3.74426 15.518C3.8178 15.5388 3.88317 15.5678 3.94446 15.6093C4.06295 15.7131 4.0466 15.8708 4.20186 16.1032C4.27949 16.2236 4.38163 16.3274 4.49603 16.4104C4.82698 16.6428 5.19878 16.6553 5.59101 16.6719C5.94647 16.6843 6.34687 16.7009 6.80855 16.8545C7.00058 16.9167 7.1967 17.0412 7.4255 17.1865C7.97707 17.531 8.72884 18 9.99133 18C11.2538 18 12.0097 17.5268 12.5653 17.1824C12.7941 17.0412 12.9903 16.9167 13.1741 16.8545C13.6317 16.7009 14.0362 16.6843 14.3917 16.6719C14.7839 16.6553 15.1557 16.6428 15.4866 16.4104C15.6255 16.3108 15.7399 16.1863 15.8217 16.0368C15.9361 15.8418 15.932 15.7048 16.0382 15.6093C16.0954 15.5678 16.1608 15.5388 16.2262 15.5222C16.5775 15.4267 16.9207 15.2898 17.2394 15.1113C17.3988 15.0241 17.5458 14.9079 17.6684 14.7709L17.6725 14.7668C17.9912 14.4348 18.0688 14.0446 17.9422 13.7043ZM16.8227 14.3144C16.1404 14.6962 15.6827 14.6547 15.3314 14.8872C15.029 15.0822 15.2088 15.5056 14.9923 15.6591C14.7226 15.8459 13.93 15.6467 12.9085 15.9912C12.0628 16.2734 11.5276 17.0911 10.0077 17.0911C8.48779 17.0911 7.96481 16.2776 7.10681 15.9912C6.08538 15.6467 5.29275 15.8501 5.02309 15.6591C4.80655 15.5056 4.98223 15.0822 4.68398 14.8872C4.32852 14.6547 3.875 14.6962 3.19269 14.3144C2.75551 14.0695 3.00474 13.9201 3.14774 13.8495C5.62369 12.6335 6.02001 10.7533 6.03635 10.6122C6.05678 10.442 6.08129 10.3092 5.89744 10.139C5.72175 9.97302 4.93729 9.47912 4.71666 9.32555C4.35712 9.06822 4.19777 8.81505 4.31626 8.49961C4.39798 8.28379 4.59818 8.20078 4.80655 8.20078C4.87192 8.20078 4.93729 8.20908 5.00266 8.22153C5.39898 8.30869 5.78304 8.50791 6.00367 8.56602C6.03227 8.57432 6.05678 8.57847 6.08538 8.57847C6.20387 8.57847 6.24472 8.51621 6.23655 8.37925C6.21204 7.9393 6.15075 7.08431 6.22021 6.28327C6.31418 5.1834 6.66147 4.63554 7.07821 4.15409C7.27841 3.92166 8.21404 2.91725 10.0077 2.91725C11.8013 2.91725 12.7369 3.91751 12.9371 4.14994C13.3539 4.63139 13.7012 5.17925 13.7951 6.27912C13.8646 7.08016 13.8033 7.93515 13.7747 8.3751C13.7665 8.52036 13.8074 8.57432 13.9259 8.57432C13.9545 8.57432 13.979 8.57017 14.0076 8.56187C14.2282 8.50791 14.6123 8.30454 15.0086 8.21738C15.074 8.20078 15.1393 8.19663 15.2047 8.19663C15.4131 8.19663 15.6133 8.27964 15.695 8.49546C15.8135 8.81089 15.6541 9.06407 15.2946 9.3214C15.0781 9.47497 14.2936 9.96887 14.1138 10.1349C13.93 10.3051 13.9545 10.4379 13.9749 10.608C13.9913 10.7492 14.3876 12.6293 16.8635 13.8454C17.0106 13.916 17.2558 14.0695 16.8227 14.3144Z"></path>
</svg>