<svg viewBox="0 0 20 20" xmlns="http://www.w3.org/2000/svg" class="e-social-share__icon" height="20px" width="20px">
  <title>Twitter Icon</title>
  <path d="M7.0304 15.7143C13.0656 15.7143 16.368 11.3139 16.368 7.50434C16.368 7.38055 16.368 7.25675 16.3616 7.13295C17.0016 6.72218 17.5584 6.21574 18 5.64177C17.3984 5.87248 16.7648 6.03004 16.112 6.09757C16.7968 5.73743 17.3088 5.1691 17.552 4.49947C16.9056 4.8371 16.2016 5.07344 15.4656 5.19723C14.224 4.03242 12.144 3.97615 10.8192 5.07344C9.968 5.77682 9.6032 6.82909 9.872 7.83071C7.2416 7.71254 4.7776 6.61526 3.1136 4.81459C2.2432 6.13133 2.6848 7.81946 4.1312 8.66352C3.6064 8.65227 3.1008 8.52847 2.64 8.30339C2.64 8.31464 2.64 8.3259 2.64 8.33715C2.64 9.71016 3.7408 10.8919 5.2768 11.1676C4.7904 11.2858 4.2848 11.3026 3.792 11.2182C4.2208 12.3943 5.456 13.199 6.8576 13.2215C5.6928 14.0261 4.2592 14.4594 2.7808 14.4594C2.5184 14.4594 2.256 14.4426 2 14.42C3.504 15.2697 5.2448 15.7143 7.0304 15.7143Z" class="e-social-share__icon-foreground"></path>
</svg>