<svg viewBox="0 0 20 20" xmlns="http://www.w3.org/2000/svg" class="e-social-share__icon" height="20px" width="20px">
  <title>WhatsApp Icon</title>
  <path d="M15.6687 4.32503C14.1648 2.82646 12.1647 2.00076 10.0336 2C5.64227 2 2.06838 5.55636 2.06685 9.92777C2.06608 11.3252 2.43318 12.6892 3.13031 13.8913L2 18L6.22327 16.8975C7.38681 17.5294 8.69703 17.862 10.0302 17.8624H10.0336C10.0332 17.8624 10.034 17.8624 10.0336 17.8624C14.4242 17.8624 17.9985 14.3056 18 9.93423C18.0008 7.81563 17.173 5.82361 15.6687 4.32503ZM10.0336 16.5235H10.0309C8.84295 16.5231 7.67751 16.2053 6.66065 15.605L6.41885 15.4621L3.91262 16.1163L4.58148 13.6845L4.4241 13.4351C3.76135 12.3859 3.41107 11.1732 3.41183 9.92815C3.41336 6.295 6.38371 3.33891 10.0363 3.33891C11.8049 3.33967 13.4673 4.02585 14.7176 5.27162C15.9678 6.51701 16.6558 8.17297 16.655 9.93347C16.6535 13.567 13.6831 16.5235 10.0336 16.5235ZM13.6656 11.5879C13.4666 11.4887 12.4879 11.0097 12.3053 10.9435C12.1227 10.8774 11.9902 10.8443 11.8576 11.0428C11.7251 11.2412 11.3435 11.6875 11.2273 11.8194C11.1112 11.9517 10.9951 11.9681 10.7961 11.8688C10.597 11.7696 9.95569 11.5605 9.19515 10.8858C8.60345 10.3604 8.20389 9.71184 8.08776 9.5134C7.97164 9.31496 8.07554 9.20776 8.17486 9.10929C8.26424 9.02034 8.37387 8.87778 8.47357 8.76221C8.57327 8.64665 8.60612 8.56377 8.67259 8.43186C8.73905 8.29956 8.70582 8.184 8.65616 8.08477C8.6065 7.98555 8.20847 7.01045 8.04231 6.61395C7.88072 6.22771 7.71647 6.28017 7.59461 6.27371C7.47849 6.26801 7.34594 6.26687 7.21301 6.26687C7.08046 6.26687 6.86463 6.31629 6.68204 6.51473C6.49945 6.71317 5.98529 7.19255 5.98529 8.16727C5.98529 9.14237 6.69847 10.0844 6.79817 10.2167C6.89787 10.349 8.20198 12.3497 10.1986 13.2081C10.6734 13.4123 11.0444 13.5343 11.3335 13.6255C11.8102 13.7765 12.2442 13.7552 12.5872 13.7042C12.9696 13.6472 13.7649 13.2249 13.9307 12.7622C14.0965 12.2996 14.0965 11.9027 14.0468 11.8202C13.9971 11.7369 13.8646 11.6871 13.6656 11.5879Z" class="e-social-share__icon-foreground"></path>
</svg>