<svg xmlns="http://www.w3.org/2000/svg" viewBox="0 0 20 20">
  <title>YouTube icon</title>
  <path d="M17.6636 6.07372C17.4818 5.37326 16.9364 4.82027 16.2455 4.62672C15 4.28571 10 4.28571 10 4.28571C10 4.28571 5 4.28571 3.74545 4.62672C3.05455 4.81105 2.51818 5.36405 2.32727 6.07372C2 7.34561 2 9.99999 2 9.99999C2 9.99999 2 12.6544 2.33636 13.9263C2.51818 14.6267 3.06364 15.1797 3.75455 15.3733C5 15.7143 10 15.7143 10 15.7143C10 15.7143 15 15.7143 16.2545 15.3733C16.9455 15.1889 17.4818 14.6359 17.6727 13.9263C18 12.6544 18 9.99999 18 9.99999C18 9.99999 18 7.34561 17.6636 6.07372Z"></path>
  <path class="youtube-arrow" fill="#fff" d="M8.36353 12.4141L12.5454 9.99937L8.36353 7.58463V12.4141Z"></path>
</svg>